<?xml version="1.0" standalone="no"?><!DOCTYPE svg PUBLIC "-//W3C//DTD SVG 1.1//EN" "http://www.w3.org/Graphics/SVG/1.1/DTD/svg11.dtd"><svg t="1504152113047" class="icon" style="" viewBox="0 0 1024 1024" version="1.1" xmlns="http://www.w3.org/2000/svg" p-id="5338" xmlns:xlink="http://www.w3.org/1999/xlink" width="200" height="200"><defs><style type="text/css"></style></defs><path d="M977.454545 830.203345c0-135.922036-81.324218-252.127418-196.282182-299.529309 55.686982-38.521018 92.374109-104.150109 92.374109-178.697309 0-101.766982-68.365964-186.945164-160.107055-209.110109-0.875055-0.214109-1.657018-0.093091-2.438982 0.214109-1.051927-0.093091-2.048-0.335127-3.099927-0.335127-19.604945 0-35.504873 16.477091-35.504873 36.770909 0 18.338909 13.014109 33.401018 29.965964 36.175127 3.006836 1.293964 6.953891 2.262109 7.112145 2.317964 53.154909 18.674036 91.415273 70.693236 91.415273 132.040145 0 68.4032-47.588073 125.263127-110.359273 137.160145-0.093091 0-0.148945 0.186182-0.242036 0.214109-20.870982 1.387055-37.469091 19.158109-37.469091 41.108945 0 22.285964 17.072873 40.354909 38.4 41.229964 0.148945 0.065164 0.269964 0.3072 0.418909 0.335127 126.194036 13.312 215.682327 124.630109 215.682327 260.105309 0 20.061091 15.695127 36.324073 35.058036 36.324073 18.916073 0 34.182982-15.508945 34.937018-34.871855 0.027927-0.214109 0.148945-0.363055 0.148945-0.549236 0-0.055855-0.027927-0.121018-0.027927-0.2048l0 0c0-0.242036 0.027927-0.456145 0.027927-0.660945L977.454545 830.203345 977.454545 830.203345 977.454545 830.203345 977.454545 830.203345 977.454545 830.203345 977.454545 830.203345 977.454545 830.203345zM557.149091 536.724945c66.466909-46.145164 110.294109-124.602182 110.294109-213.690182 0-141.982255-111.169164-257.089164-248.264145-257.089164-137.132218 0-248.301382 115.116218-248.301382 257.089164 0 89.115927 43.8272 167.554327 110.294109 213.690182C143.741673 593.501091 46.545455 732.495127 46.545455 895.106327c0 9.160145 0.512 18.162036 1.172945 27.136l0.055855 0c0 19.791127 15.508945 35.812073 34.601891 35.812073 19.130182 0 34.601891-16.020945 34.601891-35.812073 0-1.117091-0.214109-2.169018-0.335127-3.286109-0.660945-7.894109-1.238109-15.778909-1.238109-23.849891 0-173.698327 135.9872-314.498327 303.7184-314.498327 167.759127 0 303.746327 140.809309 303.746327 314.498327 0 8.368873-0.577164 16.626036-1.293964 24.790109 0 0.418909-0.121018 0.809891-0.121018 1.2288 0 0.148945 0.027927 0.269964 0.027927 0.390982 0 0.242036 0 0.484073-0.027927 0.698182l0.121018 0c0.567855 19.279127 15.750982 34.760145 34.490182 34.760145 18.729891 0 33.913018-15.481018 34.480873-34.760145l0.093091 0c0.633018-8.946036 1.079855-17.985164 1.079855-27.108073C791.775418 732.495127 694.5792 593.501091 557.149091 536.724945L557.149091 536.724945 557.149091 536.724945 557.149091 536.724945 557.149091 536.724945zM419.179055 507.689891c-98.518109 0-178.362182-82.674036-178.362182-184.655127 0-101.981091 79.844073-184.655127 178.362182-184.655127 98.490182 0 178.334255 82.674036 178.334255 184.655127C597.504 425.015855 517.659927 507.689891 419.179055 507.689891L419.179055 507.689891 419.179055 507.689891 419.179055 507.689891 419.179055 507.689891z" p-id="5339"></path></svg>