<?xml version="1.0" standalone="no"?><!DOCTYPE svg PUBLIC "-//W3C//DTD SVG 1.1//EN" "http://www.w3.org/Graphics/SVG/1.1/DTD/svg11.dtd"><svg t="1504151797996" class="icon" style="" viewBox="0 0 1024 1024" version="1.1" xmlns="http://www.w3.org/2000/svg" p-id="2386" xmlns:xlink="http://www.w3.org/1999/xlink" width="200" height="200"><defs><style type="text/css"></style></defs><path d="M242.4 426c-1.4 4.6-2.8 9.2-4 13.9-1.8 7.2-8.4 12.4-16 12.4-1.4 0-2.7-0.2-4.1-0.5-4.4-1.1-8-3.8-10.2-7.7-2.2-3.8-2.8-8.2-1.8-12.5 1.4-5.4 2.9-10.5 4.6-15.6 2.2-6.9 8.5-11.6 15.8-11.6 1.7 0 3.4 0.3 5 0.8 8.7 2.8 13.5 12.1 10.7 20.8z m319.7 67V135.3c0-31.4 16.7-53.9 43.6-58.9 1.5-0.3 4-0.7 6.7-0.8v-1.3l9.6 2.2c54.4 13 103.6 36.6 154.9 74.3 15.5 11.4 30.6 24.1 44.9 37.7 10.1 9.7 10.5 25.8 0.9 35.9-4.8 5-11.5 7.8-18.4 7.8-6.6 0-12.8-2.5-17.5-7-12.7-12.1-26.1-23.3-39.9-33.5-44.1-32.4-86.3-53-132.5-64.8-1.5 1.8-1.6 6.3-1.6 8.4v447.1c0 0.4-0.1 0.8-0.1 1.3-0.8 61.9-59.2 112.1-131 112.1-72.2 0-131-50.9-131-113.4 0-62.5 58.8-113.4 131-113.4 30.3 0 58.2 9 80.4 24z m-0.1 89.4c0-34.5-36-62.7-80.3-62.7s-80.3 28.1-80.3 62.7 36 62.7 80.3 62.7S562 617 562 582.4zM255.1 393.9c27.4-59.5 75-107.9 134.1-136.5 8.3-4 11.7-14 7.7-22.2-2.8-5.8-8.6-9.4-14.9-9.4-2.5 0-5 0.6-7.2 1.7-65.9 31.8-119.1 86-149.7 152.4-3.8 8.3-0.2 18.2 8.4 22.2 2.2 0.9 4.4 1.4 6.6 1.4 6.3-0.1 12-3.7 15-9.6z m659.3-79c-9.7-19.9-21-39.1-33.5-57.2-4.7-6.9-12.5-11-20.9-11-5.2 0-10.1 1.5-14.4 4.5-5.6 3.8-9.4 9.6-10.6 16.3-1.2 6.7 0.2 13.5 4.1 19.1 11.2 16.1 21.2 33.2 29.8 50.7 26.8 54.7 40.4 113.5 40.4 174.8 0 219.1-178.2 397.3-397.3 397.3S114.7 731.1 114.7 512c0-206.4 154.9-376.5 360.3-395.6 12.5-1.1 24.9-1.6 37-1.6 14 0 25.4-11.4 25.4-25.4 0-14-11.4-25.4-25.4-25.4-14.4 0-28.4 0.6-41.6 1.9C238.7 87.3 64 279.1 64 512c0 247 201 448 448 448 246.9 0 447.9-201 448-448 0-69-15.4-135.3-45.6-197.1z" p-id="2387" fill="#ffffff"></path></svg>